# xmcd
#
# Track frame offsets:
# 150
# 15022
# 24988
# 34827
# 44773
# 53921
# 63621
# 73916
# 86493
# 95405
# 109824
# 127708
# 138936
# 145805
# 158550
# 168597
# 180256
# 191070
# 198211
# 212893
#
# Disc length: 3004 seconds
#
# Revision: 1
# Processed by: cddbd v1.5.2PL0 Copyright (c) Steve Scherf et al.
# Submitted via: CedeCatalogueitor 2.6.0.6 http://personales.ya.com/cdcatalogueitor
#
DISCID=100bba14
DTITLE=SIMON and GARFUNKEL - THE 20 GRATEST HITS
DYEAR=2008
DGENRE=
TTITLE0=THE SOUND OF SILENCE
TTITLE1=PLAY ME A SAD SONG
TTITLE2=FOR EMILY WHENEVER 1 MAY FIND HER
TTITLE3=IT MEANS A LOT
TTITLE4=ANNA BELLE
TTITLE5=I`D LIKE TO BE
TTITLE6=HEY LITTLE SCHOOLGIRL
TTITLE7=PRIVATE WORLD
TTITLE8=LOKING AT YOU
TTITLE9=A CHURCH IS BURNING
TTITLE10=THE BOXER
TTITLE11=HOMEWARDS BOUND
TTITLE12=59TH STREET BRIDGE SONG
TTITLE13=TEEN AGE FOOL
TTITLE14=AT THE ZOO
TTITLE15=CRY LITTLE BOY CRU
TTITLE16=TWO TEEN AGERS
TTITLE17=SONG FOR THE ASKING
TTITLE18=AMERICA
TTITLE19=I AM A ROCK
EXTD=
EXTT0=
EXTT1=
EXTT2=
EXTT3=
EXTT4=
EXTT5=
EXTT6=
EXTT7=
EXTT8=
EXTT9=
EXTT10=
EXTT11=
EXTT12=
EXTT13=
EXTT14=
EXTT15=
EXTT16=
EXTT17=
EXTT18=
EXTT19=
PLAYORDER=
